<svg id="Layer_1" data-name="Layer 1" xmlns="http://www.w3.org/2000/svg" viewBox="0 0 566.93 82.47"><defs><style>.cls-1{fill:#00a75d;}</style></defs><title>Kendal_Logotype_CMYK</title><path class="cls-1" d="M340.09,419.79l42-37.79a1.24,1.24,0,0,0-1.66-1.85l-51.67,46.54v-3.12L374.89,382a1.24,1.24,0,1,0-1.66-1.85l-44.51,40.08v-3.12L367.66,382a1.24,1.24,0,0,0-1.66-1.84l-37.27,33.61v-3.11L360.54,382a1.24,1.24,0,0,0-1.66-1.85l-30.16,27.16V381.08a1.24,1.24,0,0,0-2.48,0v80a1.24,1.24,0,0,0,2.48,0V432.27l33,29.71a1.24,1.24,0,0,0,1.66-1.85l-34-30.66,1.73-1.56L368.89,462a1.24,1.24,0,1,0,1.66-1.85l-37.63-33.89,1.73-1.56L376.06,462a1.24,1.24,0,0,0,1.66-1.85L336.5,423l1.73-1.56,45,40.52a1.24,1.24,0,0,0,1.66-1.85Z" transform="translate(-311.84 -379.84)"/><path class="cls-1" d="M317.88,379.84a1.24,1.24,0,0,0-1.24,1.24v80a1.24,1.24,0,0,0,2.48,0v-80A1.24,1.24,0,0,0,317.88,379.84Z" transform="translate(-311.84 -379.84)"/><path class="cls-1" d="M322.68,379.84a1.24,1.24,0,0,0-1.24,1.24v80a1.24,1.24,0,0,0,2.48,0v-80A1.24,1.24,0,0,0,322.68,379.84Z" transform="translate(-311.84 -379.84)"/><path class="cls-1" d="M313.08,379.84a1.24,1.24,0,0,0-1.24,1.24v80a1.24,1.24,0,0,0,2.48,0v-80A1.24,1.24,0,0,0,313.08,379.84Z" transform="translate(-311.84 -379.84)"/><path class="cls-1" d="M417.92,379.84a1.24,1.24,0,0,0-1.24,1.24v80a1.24,1.24,0,0,0,2.48,0v-80A1.24,1.24,0,0,0,417.92,379.84Z" transform="translate(-311.84 -379.84)"/><path class="cls-1" d="M422.72,379.84a1.24,1.24,0,0,0-1.24,1.24v80a1.24,1.24,0,0,0,2.48,0v-80A1.24,1.24,0,0,0,422.72,379.84Z" transform="translate(-311.84 -379.84)"/><path class="cls-1" d="M413.12,379.84a1.24,1.24,0,0,0-1.24,1.24v80a1.24,1.24,0,0,0,2.48,0v-80A1.24,1.24,0,0,0,413.12,379.84Z" transform="translate(-311.84 -379.84)"/><path class="cls-1" d="M473.15,382.32a1.24,1.24,0,1,0,0-2.48H427.52a1.24,1.24,0,0,0-1.24,1.24v80a1.24,1.24,0,0,0,1.24,1.24h45.63a1.24,1.24,0,1,0,0-2.48H428.76V457.5h44.39a1.24,1.24,0,1,0,0-2.48H428.76v-2.32h44.39a1.24,1.24,0,1,0,0-2.48H428.76v-2.32h44.39a1.24,1.24,0,1,0,0-2.48H428.76V429.19H468a1.24,1.24,0,1,0,0-2.48H428.76v-2.32H468a1.24,1.24,0,1,0,0-2.48H428.76v-2.32H468a1.24,1.24,0,1,0,0-2.48H428.76v-2.32H468a1.24,1.24,0,1,0,0-2.48H428.76V396.72h44.39a1.24,1.24,0,1,0,0-2.48H428.76v-2.32h44.39a1.24,1.24,0,1,0,0-2.48H428.76v-2.32h44.39a1.24,1.24,0,1,0,0-2.48H428.76v-2.32Z" transform="translate(-311.84 -379.84)"/><path class="cls-1" d="M512.74,379.84a1.24,1.24,0,0,0-1.24,1.24v80a1.24,1.24,0,0,0,2.48,0v-80A1.24,1.24,0,0,0,512.74,379.84Z" transform="translate(-311.84 -379.84)"/><path class="cls-1" d="M517.54,379.84a1.24,1.24,0,0,0-1.24,1.24v80a1.24,1.24,0,0,0,2.48,0v-80A1.24,1.24,0,0,0,517.54,379.84Z" transform="translate(-311.84 -379.84)"/><path class="cls-1" d="M507.94,379.84a1.24,1.24,0,0,0-1.24,1.24v80a1.24,1.24,0,0,0,2.48,0v-80A1.24,1.24,0,0,0,507.94,379.84Z" transform="translate(-311.84 -379.84)"/><path class="cls-1" d="M567.46,379.84a1.24,1.24,0,0,0-1.24,1.24v80a1.24,1.24,0,0,0,2.48,0v-80A1.24,1.24,0,0,0,567.46,379.84Z" transform="translate(-311.84 -379.84)"/><path class="cls-1" d="M572.26,379.84a1.24,1.24,0,0,0-1.24,1.24v80a1.24,1.24,0,0,0,2.48,0v-80A1.24,1.24,0,0,0,572.26,379.84Z" transform="translate(-311.84 -379.84)"/><path class="cls-1" d="M562.66,379.84a1.24,1.24,0,0,0-1.24,1.24v51.67l-38.08-52.4-.05-.06-.09-.11-.09-.08L523,380l-.11-.06-.11-.05-.12,0-.11,0h-.49l-.12,0-.12,0-.09,0-.13.07h0l-.06.06-.1.09-.07.09-.07.1-.06.1-.05.11,0,.11s0,.08,0,.12a1.22,1.22,0,0,0,0,.13s0,.06,0,.09v80a1.24,1.24,0,0,0,2.48,0V409.38l38.08,52.41,0,0,.13.14.08.06.15.1.08,0,.18.07.07,0a1.24,1.24,0,0,0,.27,0h0a1.23,1.23,0,0,0,.33-.05l.07,0a1.24,1.24,0,0,0,.31-.16h0l.06-.06.1-.09.08-.09.07-.1.06-.11.05-.11,0-.12s0-.08,0-.12a1.25,1.25,0,0,0,0-.14s0-.06,0-.08v-80A1.24,1.24,0,0,0,562.66,379.84Zm-39.08,13.21,37.84,52.08v3.94L523.58,397Zm37.84,47.86-37.84-52.08V384.9L561.42,437Zm-37.84-39.69,37.84,52.08v3.94l-37.84-52.08Z" transform="translate(-311.84 -379.84)"/><path class="cls-1" d="M577.06,379.84a1.24,1.24,0,0,0-1.24,1.24v80a1.24,1.24,0,0,0,2.48,0v-80A1.24,1.24,0,0,0,577.06,379.84Z" transform="translate(-311.84 -379.84)"/><path class="cls-1" d="M747.44,379.94a1.24,1.24,0,0,0-1.63.66l-33.95,80a1.24,1.24,0,1,0,2.29,1l33.95-80A1.24,1.24,0,0,0,747.44,379.94Z" transform="translate(-311.84 -379.84)"/><path class="cls-1" d="M752.66,379.94a1.24,1.24,0,0,0-1.63.66l-34,80a1.24,1.24,0,1,0,2.29,1l34-80A1.24,1.24,0,0,0,752.66,379.94Z" transform="translate(-311.84 -379.84)"/><path class="cls-1" d="M742.22,379.94a1.24,1.24,0,0,0-1.63.66l-34,80a1.24,1.24,0,1,0,2.29,1l34-80A1.24,1.24,0,0,0,742.22,379.94Z" transform="translate(-311.84 -379.84)"/><path class="cls-1" d="M758.53,380.59l0-.08-.07-.13-.08-.1-.08-.09-.1-.09-.08-.07-.14-.08-.06,0h0l-.19-.06h0l-.23,0h0l-.17,0h-.07l-.11,0-.13,0h0l-.09,0-.11.06-.1.08-.09.07-.09.1-.07.09-.07.13,0,.08-24,56.59h0l-2,4.8h0l-7.89,18.59a1.24,1.24,0,1,0,2.29,1l7.57-17.84H767l7.57,17.83a1.24,1.24,0,0,0,2.29-1L769,442h0l-2-4.79h0l-2-4.79h0l-2-4.79h0L750.92,399.5l1.26-3,27.68,65a1.24,1.24,0,0,0,2.28-1l-28.62-67.23,1.25-2.95L785,461.55a1.24,1.24,0,0,0,2.29-1l-31.13-73.36,1.26-3,32.8,77.29a1.24,1.24,0,0,0,2.29-1Zm-22.31,53.52h26.69l1,2.32H735.24Zm25.63-2.48H737.28l1-2.32h22.61Zm-28.66,9.6,1-2.32h30.76l1,2.32Zm26.62-14.4H739.31l10.25-24.15Z" transform="translate(-311.84 -379.84)"/><path class="cls-1" d="M825.14,379.84a1.24,1.24,0,0,0-1.24,1.24v80a1.24,1.24,0,0,0,2.48,0v-80A1.24,1.24,0,0,0,825.14,379.84Z" transform="translate(-311.84 -379.84)"/><path class="cls-1" d="M829.94,379.84a1.24,1.24,0,0,0-1.24,1.24v80a1.24,1.24,0,0,0,2.48,0v-80A1.24,1.24,0,0,0,829.94,379.84Z" transform="translate(-311.84 -379.84)"/><path class="cls-1" d="M820.34,379.84a1.24,1.24,0,0,0-1.24,1.24v80a1.24,1.24,0,0,0,2.48,0v-80A1.24,1.24,0,0,0,820.34,379.84Z" transform="translate(-311.84 -379.84)"/><path class="cls-1" d="M877.53,452.7a1.24,1.24,0,1,0,0-2.48H836v-2.32h41.54a1.24,1.24,0,1,0,0-2.48H836V381.08a1.24,1.24,0,0,0-2.48,0v80a1.24,1.24,0,0,0,1.24,1.24h42.79a1.24,1.24,0,1,0,0-2.48H836V457.5h41.54a1.24,1.24,0,1,0,0-2.48H836V452.7Z" transform="translate(-311.84 -379.84)"/><path class="cls-1" d="M646.54,379.84H613.21a1.24,1.24,0,1,0,0,2.48h33.33a38.75,38.75,0,0,1,0,77.5h-17.7V457.5h17.7a36.43,36.43,0,0,0,0-72.87H613.21a1.24,1.24,0,1,0,0,2.48h33.33a34,34,0,0,1,0,67.9h-17.7v-2.32h17.7a31.63,31.63,0,0,0,0-63.27H613.21a1.24,1.24,0,1,0,0,2.48h33.33a29.15,29.15,0,0,1,0,58.3h-17.7v-2.32h17.7a26.84,26.84,0,0,0,0-53.67H613.21a1.24,1.24,0,0,0-1.24,1.24v65.59a1.24,1.24,0,0,0,2.48,0V396.72h2.32v64.34a1.24,1.24,0,0,0,2.48,0V396.72h2.32v64.34a1.24,1.24,0,0,0,2.48,0V396.72h2.32v64.34a1.24,1.24,0,0,0,1.24,1.24h18.94a41.23,41.23,0,1,0,0-82.47Zm0,16.88a24.35,24.35,0,0,1,0,48.71h-17.7V396.72Z" transform="translate(-311.84 -379.84)"/></svg>