<svg id="Layer_1" data-name="Layer 1" xmlns="http://www.w3.org/2000/svg" viewBox="0 0 566.93 82.47"><defs><style>.cls-1{fill:#fff;}</style></defs><title>Artboard 1</title><path class="cls-1" d="M28.25,40l42-37.79A1.24,1.24,0,0,0,68.59.31L16.92,46.85V43.73L63.05,2.16A1.24,1.24,0,0,0,61.39.31L16.88,40.39V37.27L55.82,2.16A1.24,1.24,0,0,0,54.16.32L16.89,33.93V30.82L48.7,2.16A1.24,1.24,0,0,0,47,.31L16.88,27.47V1.24a1.24,1.24,0,1,0-2.48,0h0v80a1.24,1.24,0,1,0,2.48,0V52.43l33,29.71a1.24,1.24,0,1,0,1.66-1.85l-34-30.66,1.73-1.56L57.05,82.16a1.24,1.24,0,0,0,1.66-1.85L21.08,46.42l1.73-1.56,41.41,37.3a1.24,1.24,0,0,0,1.66-1.85L24.66,43.16l1.73-1.56,45,40.52a1.24,1.24,0,0,0,1.66-1.85Z"/><path class="cls-1" d="M6,0A1.24,1.24,0,0,0,4.8,1.24v80a1.24,1.24,0,1,0,2.48,0v-80A1.24,1.24,0,0,0,6,0Z"/><path class="cls-1" d="M10.84,0A1.24,1.24,0,0,0,9.6,1.24v80a1.24,1.24,0,1,0,2.48,0v-80A1.24,1.24,0,0,0,10.84,0Z"/><path class="cls-1" d="M1.24,0A1.24,1.24,0,0,0,0,1.24v80a1.24,1.24,0,1,0,2.48,0v-80A1.24,1.24,0,0,0,1.24,0Z"/><path class="cls-1" d="M106.08,0a1.24,1.24,0,0,0-1.24,1.24v80a1.24,1.24,0,1,0,2.48,0v-80A1.24,1.24,0,0,0,106.08,0Z"/><path class="cls-1" d="M110.88,0a1.24,1.24,0,0,0-1.24,1.24v80a1.24,1.24,0,1,0,2.48,0v-80A1.24,1.24,0,0,0,110.88,0Z"/><path class="cls-1" d="M101.28,0A1.24,1.24,0,0,0,100,1.24v80a1.24,1.24,0,1,0,2.48,0v-80A1.24,1.24,0,0,0,101.28,0Z"/><path class="cls-1" d="M161.31,2.48a1.24,1.24,0,0,0,0-2.48H115.68a1.24,1.24,0,0,0-1.24,1.24v80a1.24,1.24,0,0,0,1.24,1.24h45.63a1.24,1.24,0,0,0,0-2.48H116.92V77.66h44.39a1.24,1.24,0,0,0,0-2.48H116.92V72.86h44.39a1.24,1.24,0,0,0,0-2.48H116.92V68.06h44.39a1.24,1.24,0,0,0,0-2.48H116.92V49.35h39.24a1.24,1.24,0,0,0,0-2.48H116.92V44.55h39.24a1.24,1.24,0,0,0,0-2.48H116.92V39.75h39.24a1.24,1.24,0,0,0,0-2.48H116.92V34.95h39.24a1.24,1.24,0,0,0,0-2.48H116.92V16.88h44.39a1.24,1.24,0,0,0,0-2.48H116.92V12.08h44.39a1.24,1.24,0,0,0,0-2.48H116.92V7.28h44.39a1.24,1.24,0,0,0,0-2.48H116.92V2.48Z"/><path class="cls-1" d="M200.9,0a1.24,1.24,0,0,0-1.24,1.24v80a1.24,1.24,0,0,0,2.48,0v-80A1.24,1.24,0,0,0,200.9,0Z"/><path class="cls-1" d="M205.7,0a1.24,1.24,0,0,0-1.24,1.24v80a1.24,1.24,0,0,0,2.48,0v-80A1.24,1.24,0,0,0,205.7,0Z"/><path class="cls-1" d="M196.1,0a1.24,1.24,0,0,0-1.24,1.24v80a1.24,1.24,0,1,0,2.48,0v-80A1.24,1.24,0,0,0,196.1,0Z"/><path class="cls-1" d="M255.62,0a1.24,1.24,0,0,0-1.24,1.24v80a1.24,1.24,0,0,0,2.48,0v-80A1.24,1.24,0,0,0,255.62,0Z"/><path class="cls-1" d="M260.42,0a1.24,1.24,0,0,0-1.24,1.24v80a1.24,1.24,0,0,0,2.48,0v-80A1.24,1.24,0,0,0,260.42,0Z"/><path class="cls-1" d="M250.82,0a1.24,1.24,0,0,0-1.24,1.24V52.91L211.5.51l0-.06-.09-.11-.09-.08-.11-.1L211.05.1l-.11,0h-1l-.13.07h0l-.06.06-.1.09-.07.09-.07.1-.06.1,0,.11V.9a1.22,1.22,0,0,0,0,.13V81.12a1.24,1.24,0,0,0,2.48,0V29.54L249.91,82h0l.13.14.08.06.15.1h.08l.18.07h.34a1.23,1.23,0,0,0,.33,0h.07a1.24,1.24,0,0,0,.31-.16h0l.06-.06.1-.09.08-.09.07-.1.06-.11,0-.11v-.24a1.25,1.25,0,0,0,0-.14V1.09A1.24,1.24,0,0,0,250.82,0ZM211.74,13.21l37.84,52.08v3.94L211.74,17.16Zm37.84,47.86L211.74,9V5.06l37.84,52.1ZM211.74,21.38l37.84,52.08V77.4L211.74,25.32Z"/><path class="cls-1" d="M265.22,0A1.24,1.24,0,0,0,264,1.24v80a1.24,1.24,0,0,0,2.48,0v-80A1.24,1.24,0,0,0,265.22,0Z"/><path class="cls-1" d="M435.6.1A1.24,1.24,0,0,0,434,.75h0l-34,80a1.25,1.25,0,0,0,2.29,1l34-80a1.24,1.24,0,0,0-.62-1.64Z"/><path class="cls-1" d="M440.82.1a1.24,1.24,0,0,0-1.63.65h0l-34,80a1.25,1.25,0,0,0,2.29,1l34-80a1.24,1.24,0,0,0-.62-1.64Z"/><path class="cls-1" d="M430.38.1a1.24,1.24,0,0,0-1.63.65h0l-34,80a1.25,1.25,0,0,0,2.29,1l34-80a1.24,1.24,0,0,0-.62-1.64Z"/><path class="cls-1" d="M446.69.75V.67l-.07-.13-.08-.1-.08-.09-.1-.09-.08-.07-.14-.08h-.06l-.19-.06h-.8L445,.11l-.1.08-.09.07-.09.1-.07.09-.07.13V.66l-24,56.59h0l-2,4.8h0l-7.89,18.59a1.25,1.25,0,0,0,2.29,1l7.57-17.84h34.63l7.57,17.83a1.25,1.25,0,0,0,2.29-1l-7.86-18.47h0l-2-4.79h0l-2-4.79h0l-2-4.79h0L439.08,19.66l1.26-3,27.68,65a1.24,1.24,0,1,0,2.28-1L441.68,13.43l1.25-3,30.23,71.23a1.25,1.25,0,0,0,2.29-1L444.32,7.35l1.26-3,32.8,77.29a1.25,1.25,0,0,0,2.29-1ZM424.38,54.27h26.69l1,2.32H423.4ZM450,51.79H425.44l1-2.32h22.61Zm-28.66,9.6,1-2.32h30.76l1,2.32ZM448,47h-20.5l10.25-24.15Z"/><path class="cls-1" d="M513.3,0a1.24,1.24,0,0,0-1.24,1.24v80a1.24,1.24,0,0,0,2.48,0v-80A1.24,1.24,0,0,0,513.3,0Z"/><path class="cls-1" d="M518.1,0a1.24,1.24,0,0,0-1.24,1.24v80a1.24,1.24,0,0,0,2.48,0v-80A1.24,1.24,0,0,0,518.1,0Z"/><path class="cls-1" d="M508.5,0a1.24,1.24,0,0,0-1.24,1.24v80a1.24,1.24,0,0,0,2.48,0v-80A1.24,1.24,0,0,0,508.5,0Z"/><path class="cls-1" d="M565.69,72.86a1.24,1.24,0,0,0,0-2.48H524.16V68.06H565.7a1.24,1.24,0,0,0,0-2.48H524.16V1.24a1.24,1.24,0,0,0-2.48,0v80a1.24,1.24,0,0,0,1.24,1.24h42.79a1.24,1.24,0,0,0,0-2.48H524.16V77.66H565.7a1.24,1.24,0,0,0,0-2.48H524.16V72.86Z"/><path class="cls-1" d="M334.7,0H301.37a1.24,1.24,0,0,0,0,2.48H334.7a38.75,38.75,0,0,1,0,77.5H317V77.66h17.7a36.43,36.43,0,1,0,0-72.87H301.37a1.24,1.24,0,0,0,0,2.48H334.7a34,34,0,0,1,0,67.9H317V72.85h17.7a31.63,31.63,0,1,0,0-63.27H301.37a1.24,1.24,0,0,0,0,2.48H334.7a29.15,29.15,0,0,1,0,58.3H317V68h17.7a26.84,26.84,0,0,0,0-53.67H301.37a1.24,1.24,0,0,0-1.24,1.24V81.2a1.24,1.24,0,0,0,2.48,0V16.88h2.32V81.22a1.24,1.24,0,0,0,2.48,0V16.88h2.32V81.22a1.24,1.24,0,0,0,2.48,0V16.88h2.32V81.22a1.24,1.24,0,0,0,1.24,1.24h18.94a41.24,41.24,0,0,0,0-82.47Zm0,16.88a24.35,24.35,0,0,1,0,48.71H317V16.88Z"/></svg>